<svg xmlns="http://www.w3.org/2000/svg" viewBox="0 0 100 100">
  <!-- Background -->
  <rect width="100" height="100" rx="3" fill="#1A1A1A"/>

  <!-- Horizontal accent lines (architectural detail) -->
  <rect x="17" y="13" width="66" height="1.5" fill="#B8975A"/>
  <rect x="17" y="85.5" width="66" height="1.5" fill="#B8975A"/>

  <!-- Vertical stem of B -->
  <rect x="21" y="20" width="10" height="60" fill="#B8975A"/>

  <!-- Upper bowl of B -->
  <path d="M31 20 H55 Q73 20 73 36 Q73 52 55 52 H31 Z" fill="#B8975A"/>
  <!-- Upper bowl inner cutout -->
  <path d="M39 28 H53 Q64 28 64 36 Q64 44 53 44 H39 Z" fill="#1A1A1A"/>

  <!-- Lower bowl of B (slightly wider) -->
  <path d="M31 52 H57 Q79 52 79 66 Q79 80 57 80 H31 Z" fill="#B8975A"/>
  <!-- Lower bowl inner cutout -->
  <path d="M39 60 H55 Q70 60 70 66 Q70 72 55 72 H39 Z" fill="#1A1A1A"/>
</svg>
